<svg viewBox="0 0 24 24" xmlns="http://www.w3.org/2000/svg"><path d="M6 2.18c0 .44.75.83 1.95 1.1a6.02 6.02 0 0 0-1.27 1.65H1.63a.28.28 0 0 0-.28.33l2.5 13.01c.06.3.5.3.55 0l1.76-9.16a6.01 6.01 0 0 0 3.51 4.13l-4.16 9.9c-.16.38.11.79.52.79h11.93c.4 0 .68-.41.52-.78l-4.16-9.9a6.01 6.01 0 0 0 3.51-4.12l1.76 9.14c.06.3.5.3.55 0l2.5-13a.28.28 0 0 0-.28-.34h-5.04a6.02 6.02 0 0 0-1.27-1.64C17.25 3 18 2.62 18 2.18c0-.83-2.69-1.5-6-1.5s-6 .67-6 1.5zm11.39 0a4.48 4.48 0 0 0-1.28-.51A17.8 17.8 0 0 0 12 1.23c-1.62 0-3.08.17-4.1.42a4.48 4.48 0 0 0-1.29.52l.15.1c.23.14.61.28 1.13.41l.62.14a5.97 5.97 0 0 1 6.98 0l.62-.14a4.48 4.48 0 0 0 1.28-.51zm-7.4 8.36c0-.16.09-.29.2-.29h3.61c.07 0 .13.06.17.14.03.04.05.1.03.15v.02c-.01.07-.04.14-.07.2l-.27.76a.14.14 0 0 1-.26 0l-.24-.7h-2.98c-.1 0-.18-.13-.18-.28z" fill="#ffb300" fill-rule="evenodd"/></svg>
